<svg width="24" height="25" viewBox="0 0 24 25" fill="none" xmlns="http://www.w3.org/2000/svg">
<path fill-rule="evenodd" clip-rule="evenodd" d="M18.0012 11.25V16.25L19.2912 17.54C19.9212 18.17 19.4712 19.25 18.5812 19.25H5.41123C4.52123 19.25 4.08123 18.17 4.71123 17.54L6.00123 16.25V11.25C6.00123 8.17 7.63123 5.61 10.5012 4.93V4.25C10.5012 3.42 11.1712 2.75 12.0012 2.75C12.8312 2.75 13.5012 3.42 13.5012 4.25V4.93C16.3612 5.61 18.0012 8.18 18.0012 11.25ZM14.0012 20.25C14.0012 21.35 13.1012 22.25 12.0012 22.25C10.8912 22.25 10.0012 21.35 10.0012 20.25H14.0012Z" fill="white"/>
</svg>
