<svg width="24" height="25" viewBox="0 0 24 25" fill="none" xmlns="http://www.w3.org/2000/svg">
<path fill-rule="evenodd" clip-rule="evenodd" d="M15.1866 14.9716H15.9766L20.2166 19.2316C20.6266 19.6416 20.6266 20.3116 20.2166 20.7216C19.8066 21.1316 19.1366 21.1316 18.7266 20.7216L14.4766 16.4716V15.6816L14.2066 15.4016C12.8066 16.6016 10.8966 17.2216 8.86656 16.8816C6.08656 16.4116 3.86656 14.0916 3.52656 11.2916C3.00656 7.06157 6.56656 3.50157 10.7966 4.02157C13.5966 4.36157 15.9166 6.58157 16.3866 9.36157C16.7266 11.3916 16.1066 13.3016 14.9066 14.7016L15.1866 14.9716ZM5.47656 10.4716C5.47656 12.9616 7.48656 14.9716 9.97656 14.9716C12.4666 14.9716 14.4766 12.9616 14.4766 10.4716C14.4766 7.98157 12.4666 5.97157 9.97656 5.97157C7.48656 5.97157 5.47656 7.98157 5.47656 10.4716Z" fill="white"/>
</svg>
